<svg width="24" height="25" viewBox="0 0 24 25" fill="none" xmlns="http://www.w3.org/2000/svg">
<circle cx="12" cy="12.4832" r="12" fill="#9356DC"/>
<path d="M10.7006 12.7643H11.7255C12.2425 12.7597 12.6511 12.6258 12.9512 12.3627C13.2558 12.0995 13.4082 11.7187 13.4082 11.2201C13.4082 10.74 13.2812 10.3684 13.0273 10.1052C12.778 9.83747 12.3949 9.7036 11.8778 9.7036C11.4254 9.7036 11.0538 9.83517 10.7629 10.0983C10.4721 10.3568 10.3267 10.6961 10.3267 11.1162H8.64398C8.64398 10.5992 8.78017 10.1283 9.05254 9.7036C9.32953 9.27888 9.7127 8.9488 10.202 8.71336C10.696 8.4733 11.2477 8.35328 11.8571 8.35328C12.8634 8.35328 13.6529 8.60718 14.2253 9.115C14.8024 9.61819 15.0909 10.3199 15.0909 11.2201C15.0909 11.6725 14.9455 12.0995 14.6546 12.5012C14.3684 12.8982 13.9968 13.1983 13.5398 13.4014C14.0937 13.5907 14.5138 13.8884 14.8001 14.2947C15.0909 14.7009 15.2363 15.1857 15.2363 15.7489C15.2363 16.6537 14.9247 17.3739 14.3015 17.9094C13.6829 18.4449 12.8681 18.7127 11.8571 18.7127C10.8876 18.7127 10.0936 18.4541 9.47495 17.9371C8.85634 17.42 8.54704 16.7322 8.54704 15.8735H10.2297C10.2297 16.3167 10.3775 16.6768 10.6729 16.9538C10.973 17.2308 11.3746 17.3693 11.8778 17.3693C12.3995 17.3693 12.8104 17.2308 13.1104 16.9538C13.4105 16.6768 13.5605 16.2752 13.5605 15.7489C13.5605 15.218 13.4036 14.8094 13.0897 14.5232C12.7757 14.237 12.3095 14.0939 11.6909 14.0939H10.7006V12.7643Z" fill="white"/>
</svg>
